<svg width="108" height="107" viewBox="0 0 108 107" fill="none" xmlns="http://www.w3.org/2000/svg">
<g clip-path="url(#clip0_1106_111)">
<path d="M55.6992 92.6C55.9992 92.6 56.1992 92.6 56.4992 92.6C56.7992 92.6 57.0992 92.6 57.4992 92.6C57.8992 92.6 58.1992 92.6 58.5992 92.5C58.6992 92.5 58.8992 92.5 58.9992 92.5C78.4992 90 93.5992 73.3 93.5992 53.1V49.1H93.3992C92.2992 38.8 87.1992 29 78.9992 22.3L85.5992 10.3L82.3992 8.3C73.7992 2.8 63.9992 0 53.8992 0C43.7992 0 33.8992 2.8 25.3992 8.2L21.9992 10.3L26.1992 17L29.5992 14.9C36.8992 10.3 45.2992 7.9 53.8992 7.9C62.4992 7.9 68.4992 9.7 74.8992 13L70.3992 21.1L68.1992 24.3L71.4992 26.5C83.0992 34.3 88.1992 49 84.0992 62.3C80.3992 74.2 69.9992 82.7 57.8992 84.3C57.7992 84.3 57.5992 84.3 57.4992 84.3C57.1992 84.3 56.9992 84.3 56.6992 84.3C56.3992 84.3 56.1992 84.3 55.8992 84.3C55.6992 84.3 55.4992 84.3 55.2992 84.3C54.7992 84.3 54.2992 84.3 53.7992 84.3C36.2992 84.3 22.0992 70.1 22.0992 52.6V48.6H14.1992V52.6C14.1992 73 29.5992 89.8 49.3992 92V92.2H53.3992C53.5992 92.2 53.6992 92.2 53.8992 92.2C54.4992 92.2 55.0992 92.2 55.6992 92.2V92.6Z" fill="#B75F9F"/>
<path d="M54.0008 16.2999C42.1008 16.0999 30.8008 21.8999 24.0008 31.6999L21.8008 34.8999L28.1008 39.2999L30.3008 36.0999C35.0008 29.3999 42.2008 25.0999 50.1008 24.1999V28.8999C48.5008 29.1999 46.8008 29.6999 45.1008 30.2999C39.1008 32.6999 34.5008 37.2999 31.9008 43.1999C29.4008 49.0999 29.3008 55.6999 31.7008 61.5999C34.1008 67.5999 38.7008 72.1999 44.6008 74.7999C47.6008 76.0999 50.8008 76.6999 54.0008 76.6999C57.2008 76.6999 60.1008 76.0999 63.0008 74.8999C70.7008 71.7999 76.2008 65.0999 77.7008 56.8999C77.7008 56.5999 77.7008 56.3999 77.8008 56.0999H78.1008V53.4999L78.3008 49.6999H78.1008V48.3999H61.2008C59.8008 45.7999 57.1008 44.0999 54.0008 44.0999C49.5008 44.0999 45.8008 47.7999 45.8008 52.2999C45.8008 56.7999 49.5008 60.4999 54.0008 60.4999C58.5008 60.4999 59.8008 58.6999 61.2008 56.1999H70.0008C68.8008 61.4999 65.2008 65.7999 60.2008 67.7999C56.1008 69.3999 51.7008 69.3999 47.7008 67.6999C43.7008 65.9999 40.5008 62.7999 38.9008 58.7999C37.3008 54.6999 37.3008 50.2999 39.0008 46.2999C40.7008 42.2999 43.9008 39.0999 47.9008 37.4999C49.9008 36.6999 51.9008 36.2999 54.0008 36.2999H58.0008L57.6008 20.5999V16.3999H53.8008L54.0008 16.2999Z" fill="#B75F9F"/>
<path d="M99.3996 24.6998L97.2996 21.2998L90.5996 25.5998L92.6996 28.9998C97.2996 36.2998 99.6996 44.7998 99.6996 53.3998C99.6996 74.9998 84.9996 93.3998 63.9996 98.0998L60.0996 98.9998L61.8996 106.8L65.7996 105.9C77.4996 103.2 88.0996 96.5998 95.6996 87.1998C103.4 77.6998 107.7 65.5998 107.7 53.3998C107.7 41.1998 104.8 33.2998 99.3996 24.6998Z" fill="#B75F9F"/>
<path d="M8 53.3998C8 44.6998 10.4 36.2998 15 28.9998L17.1 25.5998L10.3 21.2998L8.2 24.6998C2.9 33.2998 0 43.1998 0 53.3998C0 63.5998 4.2 77.6998 12 87.1998C19.6 96.5998 30.2 103.2 41.9 105.9L45.8 106.8L47.6 98.9998L43.7 98.0998C22.7 93.3998 8 74.9998 8 53.3998Z" fill="#B75F9F"/>
</g>
<defs>
<clipPath id="clip0_1106_111">
<rect width="107.7" height="106.8" fill="white"/>
</clipPath>
</defs>
</svg>
