<?xml version="1.0" encoding="UTF-8"?><svg xmlns="http://www.w3.org/2000/svg" viewBox="0 0 107.7 106.8"><defs><style>.d{fill:#661081;}.e{fill:#b860a0;}.f{fill:#910581;}</style></defs><g id="a"/><g id="b"><g id="c"><path class="f" d="M55.7,92.6c.3,0,.5,0,.8,0,.3,0,.6,0,1,0,.4,0,.7,0,1.1-.1,.1,0,.3,0,.4,0,19.5-2.5,34.6-19.2,34.6-39.4v-4h-.2c-1.1-10.3-6.2-20.1-14.4-26.8l6.6-12-3.2-2C73.8,2.8,64,0,53.9,0s-20,2.8-28.5,8.2l-3.4,2.1,4.2,6.7,3.4-2.1c7.3-4.6,15.7-7,24.3-7s14.6,1.8,21,5.1l-4.5,8.1-2.2,3.2,3.3,2.2c11.6,7.8,16.7,22.5,12.6,35.8-3.7,11.9-14.1,20.4-26.2,22-.1,0-.3,0-.4,0-.3,0-.5,0-.8,0-.3,0-.5,0-.8,0-.2,0-.4,0-.6,0-.5,0-1,0-1.5,0h0c-17.5,0-31.7-14.2-31.7-31.7v-4h-7.9v4c0,20.4,15.4,37.2,35.2,39.4v.2h4c.2,0,.3,0,.5,0h0c.6,0,1.2,0,1.8,0Z"/><path class="e" d="M54,16.3c-11.9-.2-23.2,5.6-30,15.4l-2.2,3.2,6.3,4.4,2.2-3.2c4.7-6.7,11.9-11,19.8-11.9v4.7c-1.6,.3-3.3,.8-5,1.4-6,2.4-10.6,7-13.2,12.9-2.5,5.9-2.6,12.5-.2,18.4,2.4,6,7,10.6,12.9,13.2,3,1.3,6.2,1.9,9.4,1.9s6.1-.6,9-1.8c7.7-3.1,13.2-9.8,14.7-18,0-.3,0-.5,.1-.8h.3v-2.6l.2-3.8h-.2v-1.3h-16.9c-1.4-2.6-4.1-4.3-7.2-4.3-4.5,0-8.2,3.7-8.2,8.2s3.7,8.2,8.2,8.2,5.8-1.8,7.2-4.3h8.8c-1.2,5.3-4.8,9.6-9.8,11.6-4.1,1.6-8.5,1.6-12.5-.1-4-1.7-7.2-4.9-8.8-8.9-1.6-4.1-1.6-8.5,.1-12.5,1.7-4,4.9-7.2,8.9-8.8,2-.8,4-1.2,6.1-1.2h4l-.4-15.7v-4.2h-3.8Z"/><g><path class="d" d="M99.4,24.7l-2.1-3.4-6.7,4.3,2.1,3.4c4.6,7.3,7,15.8,7,24.4,0,21.6-14.7,40-35.7,44.7l-3.9,.9,1.8,7.8,3.9-.9c11.7-2.7,22.3-9.3,29.9-18.7,7.7-9.5,12-21.6,12-33.8s-2.9-20.1-8.3-28.7Z"/><path class="d" d="M8,53.4c0-8.7,2.4-17.1,7-24.4l2.1-3.4-6.8-4.3-2.1,3.4C2.9,33.3,0,43.2,0,53.4s4.2,24.3,12,33.8c7.6,9.4,18.2,16,29.9,18.7l3.9,.9,1.8-7.8-3.9-.9C22.7,93.4,8,75,8,53.4Z"/></g></g></g></svg>