<?xml version="1.0" encoding="UTF-8"?><svg xmlns="http://www.w3.org/2000/svg" viewBox="0 0 283.5 81.6"><defs><style>.d{fill:#fff;}.e{fill:#910581;}</style></defs><g id="a"/><g id="b"><g id="c"><g><path class="e" d="M102.9,12.6h3.8V48.7h-3.8V12.6Z"/><path class="e" d="M125.5,15.9h-12.7v-3.3h29.2v3.3h-12.7V48.7h-3.8V15.9Z"/><path class="e" d="M170.9,30.1h7.6v14.7c-2,1.5-4.2,2.6-6.8,3.4s-5.2,1.2-7.8,1.2c-3.8,0-7.1-.8-10.1-2.4-3-1.6-5.3-3.8-7-6.7-1.7-2.8-2.6-6-2.6-9.6s.9-6.8,2.6-9.6c1.7-2.8,4.1-5.1,7.1-6.7,3-1.6,6.4-2.4,10.2-2.4s6,.5,8.6,1.6c2.6,1.1,4.7,2.6,6.5,4.6l-5.4,5c-2.6-2.7-5.7-4.1-9.3-4.1s-4.4,.5-6.1,1.4c-1.8,1-3.2,2.3-4.2,4.1-1,1.8-1.5,3.8-1.5,6s.5,4.2,1.5,6c1,1.8,2.4,3.1,4.2,4.1,1.8,1,3.8,1.5,6.1,1.5s4.6-.5,6.5-1.5v-10.6Z"/><path class="e" d="M225.8,12.6h8.4v29.3h18.1v6.8h-26.5V12.6Z"/><path class="e" d="M257,12.6h8.4v29.3h18.1v6.8h-26.5V12.6Z"/><g><path class="e" d="M106.8,62.5h-4v-1h9.1v1h-4v10.2h-1.2v-10.2Z"/><path class="e" d="M120.1,68.8h-7.1c0,.9,.4,1.6,1,2.1,.6,.5,1.4,.8,2.3,.8s1,0,1.4-.3c.4-.2,.8-.5,1.1-.8l.6,.7c-.4,.5-.8,.8-1.4,1-.6,.2-1.2,.4-1.9,.4s-1.6-.2-2.3-.6c-.7-.4-1.2-.9-1.6-1.5-.4-.7-.6-1.4-.6-2.2s.2-1.6,.5-2.2c.4-.7,.9-1.2,1.5-1.5,.6-.4,1.3-.5,2.1-.5s1.5,.2,2.1,.5c.6,.4,1.1,.9,1.5,1.5,.4,.6,.5,1.4,.5,2.2v.4Zm-6.2-2.9c-.6,.5-.9,1.2-.9,2h6c0-.8-.4-1.5-.9-2-.6-.5-1.2-.8-2.1-.8s-1.5,.3-2.1,.8Z"/><path class="e" d="M123.7,72.2c-.7-.4-1.2-.9-1.6-1.5-.4-.7-.6-1.4-.6-2.2s.2-1.6,.6-2.2c.4-.7,.9-1.2,1.6-1.5,.7-.4,1.4-.5,2.2-.5s1.4,.1,2,.4,1,.7,1.4,1.2l-.9,.6c-.3-.4-.6-.7-1.1-.9-.4-.2-.9-.3-1.4-.3s-1.2,.1-1.6,.4c-.5,.3-.9,.7-1.1,1.2-.3,.5-.4,1.1-.4,1.7s.1,1.2,.4,1.7c.3,.5,.7,.9,1.1,1.2,.5,.3,1,.4,1.6,.4s1-.1,1.4-.3c.4-.2,.8-.5,1.1-.9l.9,.6c-.3,.5-.8,1-1.4,1.2-.6,.3-1.2,.4-1.9,.4s-1.6-.2-2.2-.5Z"/><path class="e" d="M138.2,65.1c.6,.6,.9,1.5,.9,2.7v4.9h-1.1v-4.8c0-.9-.2-1.5-.7-2-.4-.5-1.1-.7-1.9-.7s-1.6,.3-2.2,.8c-.5,.5-.8,1.3-.8,2.2v4.4h-1.1v-11.9h1.1v5c.3-.5,.7-.9,1.3-1.1,.5-.3,1.2-.4,1.9-.4,1.1,0,1.9,.3,2.5,.9Z"/><path class="e" d="M151.1,69.7h-2.3v3h-1.2v-3h-6.4v-.8l6-7.5h1.3l-5.8,7.3h4.9v-2.6h1.1v2.6h2.3v1Z"/><path class="e" d="M160,61.9c.7,.3,1.3,.8,1.7,1.4,.4,.6,.6,1.3,.6,2.1s-.2,1.5-.6,2.1c-.4,.6-.9,1.1-1.7,1.4-.7,.3-1.6,.5-2.5,.5h-2.5v3.2h-2.1v-11.3h4.6c1,0,1.8,.2,2.5,.5Zm-.6,5.2c.5-.4,.7-.9,.7-1.7s-.2-1.3-.7-1.7c-.5-.4-1.2-.6-2.1-.6h-2.4v4.5h2.4c.9,0,1.6-.2,2.1-.6Z"/><path class="e" d="M172.1,69h-6.7c.1,.6,.4,1.1,.9,1.5,.5,.4,1.1,.6,1.9,.6s1.7-.3,2.3-.9l1.1,1.2c-.4,.5-.9,.8-1.5,1-.6,.2-1.3,.4-2,.4s-1.8-.2-2.5-.6c-.7-.4-1.3-.9-1.7-1.6-.4-.7-.6-1.4-.6-2.3s.2-1.6,.6-2.3c.4-.7,.9-1.2,1.6-1.6,.7-.4,1.4-.6,2.3-.6s1.6,.2,2.2,.6c.7,.4,1.2,.9,1.5,1.6,.4,.7,.6,1.4,.6,2.3s0,.3,0,.6Zm-5.9-2.9c-.4,.4-.7,.9-.8,1.5h4.9c0-.6-.3-1.1-.8-1.5-.4-.4-1-.6-1.6-.6s-1.2,.2-1.6,.6Z"/><path class="e" d="M175.6,72.2c-.7-.4-1.2-.9-1.6-1.6-.4-.7-.6-1.4-.6-2.3s.2-1.6,.6-2.3c.4-.7,.9-1.2,1.6-1.6,.7-.4,1.5-.6,2.3-.6s1.7,.2,2.4,.6c.7,.4,1.2,.9,1.6,1.6,.4,.7,.6,1.4,.6,2.3s-.2,1.6-.6,2.3c-.4,.7-.9,1.2-1.6,1.6-.7,.4-1.5,.6-2.4,.6s-1.7-.2-2.3-.6Zm4.2-1.9c.5-.5,.7-1.1,.7-1.9s-.2-1.5-.7-1.9c-.5-.5-1.1-.7-1.8-.7s-1.3,.2-1.8,.7c-.5,.5-.7,1.1-.7,1.9s.2,1.5,.7,1.9c.5,.5,1.1,.7,1.8,.7s1.4-.2,1.8-.7Z"/><path class="e" d="M191.5,64.5c.7,.4,1.2,.9,1.6,1.5,.4,.7,.6,1.4,.6,2.3s-.2,1.6-.6,2.3c-.4,.7-.9,1.2-1.6,1.6-.7,.4-1.4,.5-2.2,.5s-2.1-.4-2.7-1.2v4.2h-2v-11.7h1.9v1.1c.3-.4,.7-.7,1.2-.9,.5-.2,1-.3,1.6-.3,.8,0,1.6,.2,2.2,.5Zm-.6,5.8c.5-.5,.7-1.1,.7-1.9s-.2-1.5-.7-1.9c-.5-.5-1.1-.7-1.8-.7s-.9,.1-1.3,.3c-.4,.2-.7,.5-.9,.9-.2,.4-.3,.9-.3,1.4s.1,1,.3,1.4c.2,.4,.5,.7,.9,.9,.4,.2,.8,.3,1.3,.3,.7,0,1.3-.2,1.8-.7Z"/><path class="e" d="M195.5,60.7h2v11.9h-2v-11.9Z"/><path class="e" d="M208.2,69h-6.7c.1,.6,.4,1.1,.9,1.5,.5,.4,1.1,.6,1.9,.6s1.7-.3,2.3-.9l1.1,1.2c-.4,.5-.9,.8-1.5,1-.6,.2-1.3,.4-2,.4s-1.8-.2-2.5-.6c-.7-.4-1.3-.9-1.7-1.6-.4-.7-.6-1.4-.6-2.3s.2-1.6,.6-2.3c.4-.7,.9-1.2,1.6-1.6,.7-.4,1.4-.6,2.3-.6s1.6,.2,2.2,.6c.7,.4,1.2,.9,1.5,1.6,.4,.7,.6,1.4,.6,2.3s0,.3,0,.6Zm-5.9-2.9c-.4,.4-.7,.9-.8,1.5h4.9c0-.6-.3-1.1-.8-1.5-.4-.4-1-.6-1.6-.6s-1.2,.2-1.6,.6Z"/></g><g><path class="e" d="M240.6,68.3c0,2.5-2,4.5-4.5,4.5s-4.5-2-4.5-4.5,2-4.5,4.5-4.5,4.5,2,4.5,4.5Z"/><path class="e" d="M253.4,68.3c0,1.2-1,2.3-2.3,2.3s-2.3-1-2.3-2.3,1-2.3,2.3-2.3,2.3,1,2.3,2.3Z"/><path class="e" d="M270.7,68.3c0,2.5-2,4.5-4.5,4.5s-4.5-2-4.5-4.5,2-4.5,4.5-4.5,4.5,2,4.5,4.5Z"/><path class="e" d="M283.5,68.3c0,1.2-1,2.3-2.3,2.3s-2.3-1-2.3-2.3,1-2.3,2.3-2.3,2.3,1,2.3,2.3Z"/><path class="e" d="M223.3,68.3c0,1.2-1,2.3-2.3,2.3s-2.3-1-2.3-2.3,1-2.3,2.3-2.3,2.3,1,2.3,2.3Z"/></g><polygon class="d" points="201.8 20.6 198.1 12.6 197.2 15 200.8 23.1 201.8 20.6"/><polygon class="e" points="183.7 48.7 191.3 48.7 200.8 23.1 200.8 23.1 197.2 15 198.1 12.6 183.7 48.7"/><polygon class="e" points="212.1 48.7 219.9 48.7 205.4 12.6 198.1 12.6 201.8 20.6 212.1 48.7"/><path class="e" d="M42.5,70.7c.2,0,.4,0,.6,0,.2,0,.5,0,.7,0,.3,0,.5,0,.8,0,.1,0,.2,0,.3,0,14.9-1.9,26.5-14.6,26.5-30.1v-3h-.2c-.8-7.9-4.7-15.3-11-20.5l5-9.2-2.4-1.5C56.4,2.2,48.9,0,41.1,0s-15.3,2.2-21.8,6.3l-2.6,1.6,3.2,5.1,2.6-1.6c5.5-3.5,12-5.3,18.6-5.3s11.1,1.3,16.1,3.9l-3.4,6.2-1.6,2.5,2.5,1.7c8.8,5.9,12.8,17.2,9.6,27.3-2.8,9.1-10.8,15.6-20,16.8-.1,0-.2,0-.3,0-.2,0-.4,0-.6,0-.2,0-.4,0-.6,0-.1,0-.3,0-.4,0-.4,0-.7,0-1.1,0h0c-13.4,0-24.2-10.9-24.2-24.2v-3h-6.1v3c0,15.6,11.8,28.4,26.9,30.1v.2h3c.1,0,.2,0,.4,0h0c.5,0,.9,0,1.4,0Z"/><path class="e" d="M41.3,12.5c-9.1-.1-17.7,4.3-22.9,11.8l-1.7,2.4,4.8,3.4,1.7-2.4c3.6-5.1,9.1-8.4,15.2-9.1v3.6c-1.2,.2-2.5,.6-3.8,1.1-4.6,1.8-8.1,5.4-10,9.9-1.9,4.5-2,9.5-.1,14.1,1.8,4.6,5.4,8.1,9.9,10,2.3,1,4.7,1.5,7.2,1.5s4.7-.5,6.9-1.4c5.9-2.4,10.1-7.5,11.2-13.8,0-.2,0-.4,0-.6h.2v-4.9h0v-1h-12.9c-1.1-2-3.1-3.3-5.5-3.3-3.5,0-6.3,2.8-6.3,6.3s2.8,6.3,6.3,6.3,4.5-1.3,5.5-3.3h6.7c-.9,4-3.7,7.3-7.5,8.9-3.1,1.3-6.5,1.2-9.6,0-3.1-1.3-5.5-3.7-6.7-6.8-1.3-3.1-1.2-6.5,0-9.6,1.3-3.1,3.7-5.5,6.8-6.7,1.5-.6,3.1-.9,4.7-.9h3l-.3-12v-3.2h-2.9Z"/><g><path class="e" d="M76,18.9l-1.6-2.6-5.2,3.2,1.6,2.6c3.5,5.6,5.4,12,5.4,18.7,0,16.5-11.2,30.5-27.2,34.2l-3,.7,1.3,5.9,3-.7c8.9-2,17.1-7.1,22.9-14.3,5.9-7.3,9.1-16.5,9.1-25.8s-2.2-15.4-6.3-21.9Z"/><path class="e" d="M6.1,40.8c0-6.6,1.9-13.1,5.4-18.7l1.6-2.6-5.2-3.2-1.6,2.6C2.2,25.4,0,33,0,40.8s3.2,18.6,9.1,25.8c5.8,7.2,13.9,12.2,22.9,14.3l3,.7,1.3-5.9-3-.7c-16-3.6-27.2-17.7-27.2-34.2Z"/></g></g></g></g></svg>